<svg xmlns="http://www.w3.org/2000/svg" width="430" height="430" fill="none" viewBox="0 0 430 430"><mask id="Ppw0bpJpnia" width="350" height="350" x="40" y="40" maskUnits="userSpaceOnUse" style="mask-type:alpha"><circle cx="215" cy="215" r="175" fill="#fff"/></mask><g stroke="#121331" stroke-linecap="round" stroke-linejoin="round" stroke-miterlimit="10" stroke-width="12" mask="url(#Ppw0bpJpnia)"><path d="m366.974 98.587-78.298 78.298-8.678 8.679M103.514 362.048l86.773-86.774M109.4 62.3l68.929 69.025M64.5 102.5l80.846 80.75 4.72 4.719m50.149 213.287 200.492-200.492"/></g><path stroke="#c44e35" stroke-linejoin="round" stroke-width="12" d="M280 185c0 35.899-29.101 75-65 125-35.899-50-65-89.101-65-125s29.101-65 65-65 65 29.101 65 65Z"/><path stroke="#c44e35" stroke-linejoin="round" stroke-width="12" d="M245 185c0 16.569-13.431 30-30 30s-30-13.431-30-30 13.431-30 30-30 30 13.431 30 30Z"/><circle cx="215" cy="215" r="175" stroke="#121331" stroke-dasharray="40 40" stroke-linecap="round" stroke-linejoin="round" stroke-width="12"/></svg>