<svg xmlns="http://www.w3.org/2000/svg" width="430" height="430" fill="none" viewBox="0 0 430 430"><g stroke-linecap="round" stroke-linejoin="round" stroke-miterlimit="10"><path stroke="#121331" stroke-width="12" d="M55 115.299v129.5h43.2l30.6-115.8s-10.4-6.5-36.9-11.2c-18.2-3.3-36.9-2.5-36.9-2.5"/><path stroke="#121331" stroke-width="12" d="M102.699 227.6s76.5 77.9 106.4 86.1c18.3 5 23.9-4 23.9-4m92.201-83.5 4.6 12.7 2.2 6h43.2V115.3s-18.9-1.6-36.9 2.5c-8.9 2-16.3 4.8-22.3 7.7m-87.299 58.1s-27.4 25.9-46.7 24.6-19-20.3-14.2-30.9c3.2-7 16.899-23.2 31.099-33.4 7.2-5.1 14.501-8.7 20.701-8.8 13.7-.2 49.3 7 66.9 10.8"/><path stroke="#c44e35" stroke-width="14" d="m300.799 245.9 24.4-19.7 44-35.7-53.3-65-1.6-1.9-27.7 22.3-51.9 42"/><path stroke="#c44e35" stroke-width="12" d="M298.099 207.899c4.3 1 8.9-.7 12.5-3.5.7-.5 1.4-1.1 2-1.8 1.1-1.2 2.1-2.5 2.6-4.1.2-.4.3-.9.4-1.4.4-2.1.1-4.4-1.2-6-.8-1.1-1.7-1.8-2.7-2.3-7.7-3.7-19.1 10.3-24.9 1.2-1.7-2.7-1.4-6.4.3-9 .7-1 1.5-2 2.4-2.8 3.5-3.3 8.6-5.3 12.8-3.7m13.401 36.2-5.1-6.3m-21-25.999-5.2-6.3"/><path stroke="#121331" stroke-width="12" d="M187.301 260.399c41.2 46.2 47.7 57 60.3 50.2 6.5-3.5 12.1-11 14.6-15.3"/><path stroke="#121331" stroke-width="12" d="M217.9 247.699c41.2 46.2 47.7 57 60.3 50.2 6.5-3.5 11.8-10.6 14.3-14.8"/><path stroke="#121331" stroke-width="12" d="M228.699 183.6c21.4 17.7 59.4 51.6 75.4 66.8 1.7 1.6 3.3 3.5 4.5 5.5 4.1 6.5 5.3 14.4.2 20.4-1.1 1.4-5.3 4.8-6.6 5.5-3.5 1.9-6.5 2.4-9.8 1.2-8.9-3.1-20.6-17.9-50.4-51.5M124.9 143.899H199M329.699 238.8l-21 17"/><path stroke="#121331" stroke-width="14" d="M87.75 148.175h.1m255.951-2.8h.1"/></g></svg>