<svg xmlns="http://www.w3.org/2000/svg" width="430" height="430" fill="none" viewBox="0 0 430 430"><g stroke-linecap="round" stroke-linejoin="round" stroke-miterlimit="10"><path stroke="#c44e35" stroke-width="12" d="M401.6 91H276.5v248.5h125.1z"/><path stroke="#121331" stroke-width="12" d="M276.5 91H28v248.5h248.5z"/><path stroke="#121331" stroke-width="12" d="m203.2 295.7-74.6-129.2-99.9 173"/><path stroke="#121331" stroke-width="12" d="m177.9 339.5 49.3-85.4 49.3 85.4"/><path stroke="#c44e35" stroke-width="12" d="M212.4 183.2c15.519 0 28.1-12.581 28.1-28.1S227.919 127 212.4 127s-28.1 12.581-28.1 28.1 12.581 28.1 28.1 28.1m99.4-22.4h57.1m-57.1 58.4h57.1m-57.1 58.4h57.1"/><path stroke="#121331" stroke-width="23" d="M347.4 160.8v.1m-16 58.3v.1m16 58.25v.1"/></g></svg>