<svg xmlns="http://www.w3.org/2000/svg" width="430" height="430" fill="none" viewBox="0 0 430 430"><mask id="Rq4Mj5Jwbqa" width="192" height="233" x="24" y="99" maskUnits="userSpaceOnUse" style="mask-type:alpha"><path fill="#D6D6D6" d="M215.5 99.004 215 99H55c-17.12 0-31 13.879-31 31v115c0 17.121 13.88 31 31 31h32.134l46.727 51.399A11 11 0 0 0 153 320v-44h32.024L162.5 205l33-12 20 20z"/></mask><g mask="url(#Rq4Mj5Jwbqa)"><path stroke="#c44e35" stroke-linejoin="round" stroke-width="18" d="M55 110c-11.046 0-20 8.954-20 20v115c0 11.046 8.954 20 20 20h37l50 55v-55h73c11.046 0 20-8.954 20-20V130c0-11.046-8.954-20-20-20z"/></g><path stroke="#c44e35" stroke-linecap="round" stroke-linejoin="round" stroke-width="18" d="M129 175v40"/><path stroke="#c44e35" stroke-linecap="round" stroke-width="18" d="M114 215h30"/><path stroke="#c44e35" stroke-linecap="round" stroke-width="22.5" d="M126.5 152.5h.01"/><path stroke="#c44e35" stroke-linecap="round" stroke-width="18" d="M119 175h10"/><path stroke="#000" stroke-linejoin="round" stroke-width="18" d="M235 335v-20.001l-22.451-18.827a100 100 0 0 1-32.337-50.742l-16.976-63.356c-1.787-6.668 2.17-13.523 8.839-15.309 20.004-5.361 40.567 6.511 45.927 26.516l1.998 7.457V185m140 150v-20l10.345-25.861A135 135 0 0 0 380 239.001V185"/><path stroke="#000" stroke-linecap="round" stroke-linejoin="round" stroke-width="18" d="m215.391 183.535 7.094 26.475 7.094 26.476M260 185V75c0-11.046-8.954-20-20-20s-20 8.954-20 20v110m80 0V60c0-11.046-8.954-20-20-20s-20 8.954-20 20v125m80 0V75c0-11.046-8.954-20-20-20s-20 8.954-20 20v110m80 0v-80c0-11.046-8.954-20-20-20s-20 8.954-20 20v80"/><path stroke="#c44e35" stroke-linejoin="round" stroke-width="18" d="M230 335h135v40H230z"/></svg>