<svg xmlns="http://www.w3.org/2000/svg" width="24" height="24" fill="none" viewBox="0 0 24 24"><g fill="currentColor" fill-rule="evenodd" clip-rule="evenodd"><path d="M12 5.5a4 4 0 1 1 0 8 4 4 0 0 1 0-8M12 7a2.5 2.5 0 1 0 0 5 2.5 2.5 0 0 0 0-5"/><path d="M12 2c5.523 0 10 4.477 10 10a9.97 9.97 0 0 1-3.316 7.436l-.012.01A9.96 9.96 0 0 1 12 22C6.477 22 2 17.523 2 12S6.477 2 12 2M9.75 16.5a3.25 3.25 0 0 0-3.053 2.14A8.46 8.46 0 0 0 12 20.5a8.46 8.46 0 0 0 5.303-1.86 3.25 3.25 0 0 0-3.053-2.14zM12 3.5a8.5 8.5 0 0 0-6.45 14.032A4.75 4.75 0 0 1 9.75 15h4.5a4.75 4.75 0 0 1 4.2 2.532A8.46 8.46 0 0 0 20.5 12 8.5 8.5 0 0 0 12 3.5"/></g></svg>
