<svg xmlns="http://www.w3.org/2000/svg" width="430" height="430" fill="none" viewBox="0 0 430 430"><path fill="url(#UqWp27IR4fa)" fill-rule="evenodd" d="M179.769 171.56a9 9 0 0 1 8.317-5.56h8.816a9 9 0 0 1 8.316 5.559l33.099 80a9 9 0 0 1-4.876 11.757 9 9 0 0 1-11.757-4.875l-5.885-14.225h-46.6l-5.882 14.224a9 9 0 0 1-16.633-6.88zm-3.125 54.656h31.708l-15.858-38.327z" clip-rule="evenodd"/><path fill="url(#GCHe2WtI3nb)" d="M253 255a9 9 0 0 0 18 0v-80a9 9 0 0 0-18 0z"/><path fill="url(#OQMgIQVLo-c)" fill-rule="evenodd" d="M154.531 59c-3.405 7.379-10.87 12.5-19.531 12.5-11.874 0-21.5-9.626-21.5-21.5s9.626-21.5 21.5-21.5c8.661 0 16.125 5.12 19.531 12.5H185a9 9 0 0 1 9 9v41h42V50a9 9 0 0 1 9-9h30.469c3.406-7.38 10.87-12.5 19.531-12.5 11.874 0 21.5 9.626 21.5 21.5s-9.626 21.5-21.5 21.5c-8.661 0-16.126-5.121-19.531-12.5H254v32h56c16.016 0 29 12.984 29 29v56h32v-21.469c-7.379-3.406-12.5-10.87-12.5-19.531 0-11.874 9.626-21.5 21.5-21.5s21.5 9.626 21.5 21.5c0 8.661-5.121 16.125-12.5 19.531V185a9 9 0 0 1-9 9h-41v42h41a9 9 0 0 1 9 9v30.469c7.379 3.406 12.5 10.87 12.5 19.531 0 11.874-9.626 21.5-21.5 21.5s-21.5-9.626-21.5-21.5c0-8.661 5.121-16.125 12.5-19.531V254h-32v56c0 16.016-12.984 29-29 29h-56v32h21.469c3.406-7.379 10.87-12.5 19.531-12.5 11.874 0 21.5 9.626 21.5 21.5s-9.626 21.5-21.5 21.5c-8.661 0-16.125-5.121-19.531-12.5H245a9 9 0 0 1-9-9v-41h-42v41a9 9 0 0 1-9 9h-30.469c-3.406 7.379-10.87 12.5-19.531 12.5-11.874 0-21.5-9.626-21.5-21.5s9.626-21.5 21.5-21.5c8.661 0 16.125 5.121 19.531 12.5H176v-32h-56c-16.016 0-29-12.984-29-29v-56H59v21.469c7.38 3.406 12.5 10.87 12.5 19.531 0 11.874-9.626 21.5-21.5 21.5s-21.5-9.626-21.5-21.5c0-8.661 5.12-16.125 12.5-19.531V245a9 9 0 0 1 9-9h41v-42H50a9 9 0 0 1-9-9v-30.469c-7.38-3.406-12.5-10.87-12.5-19.531 0-11.874 9.626-21.5 21.5-21.5s21.5 9.626 21.5 21.5c0 8.661-5.12 16.125-12.5 19.531V176h32v-56c0-16.016 12.984-29 29-29h56V59zM109 310c0 6.075 4.925 11 11 11h190c6.075 0 11-4.925 11-11V120c0-6.075-4.925-11-11-11H120c-6.075 0-11 4.925-11 11z" clip-rule="evenodd"/><defs><linearGradient id="UqWp27IR4fa" x1="150.517" x2="349.573" y1="111.335" y2="335.547" gradientUnits="userSpaceOnUse"><stop stop-color="#8930e8"/><stop offset="1"/></linearGradient><linearGradient id="GCHe2WtI3nb" x1="150.517" x2="349.573" y1="111.335" y2="335.547" gradientUnits="userSpaceOnUse"><stop stop-color="#8930e8"/><stop offset="1"/></linearGradient><linearGradient id="OQMgIQVLo-c" x1="150.517" x2="349.573" y1="111.335" y2="335.547" gradientUnits="userSpaceOnUse"><stop stop-color="#8930e8"/><stop offset="1"/></linearGradient></defs></svg>