<svg xmlns="http://www.w3.org/2000/svg" width="430" height="430" fill="none" viewBox="0 0 430 430"><g stroke-linecap="round" stroke-linejoin="round" stroke-miterlimit="10" stroke-width="12"><path stroke="#121331" d="M239.331 186.977a140 140 0 0 0 67.8 67L347 272.362l-40.114 18.628a140 140 0 0 0-67.465 66.844L219.365 400l-19.815-41.932a140 140 0 0 0-67.616-67.162L92 272.362l39.688-18.302a140 140 0 0 0 67.951-67.317L219.365 145z"/><path stroke="#c44e35" d="M129.957 40.577a115 115 0 0 0 55.693 55.036l9.35 4.311-9.552 4.436a115 115 0 0 0-55.418 54.908L124.926 170l-4.981-10.54a115 115 0 0 0-55.541-55.169L55 99.924l9.202-4.243a115 115 0 0 0 55.816-55.296L124.926 30zm216.173 87.411a55 55 0 0 0 26.636 26.322L385 159.951l-12.33 5.726a55 55 0 0 0-26.505 26.261L339.952 205l-6.129-12.971a55 55 0 0 0-26.563-26.385L295 159.951l12.163-5.609a55 55 0 0 0 26.695-26.446L339.952 115z"/><circle cx="265" cy="75" r="15" stroke="#c44e35"/><circle cx="65" cy="215" r="15" stroke="#c44e35"/><circle cx="315" cy="360" r="15" stroke="#c44e35"/></g></svg>