<svg xmlns="http://www.w3.org/2000/svg" width="24" height="24" fill="none" viewBox="0 0 24 24"><g clip-path="url(#MqiOs2k5fMa)"><path stroke="#fff" stroke-linecap="round" stroke-linejoin="round" stroke-width="1.5" d="M20.25 7.25a1 1 0 0 1 1 1v11a1 1 0 0 1-1 1H3.75a1 1 0 0 1-1-1v-11a1 1 0 0 1 1-1h3l.98-2.288A2 2 0 0 1 9.57 3.75h5.022a2 2 0 0 1 1.883 1.327l.776 2.173z"/><circle cx="18" cy="10" r="1" fill="#fff"/><path stroke="#fff" stroke-linecap="round" stroke-linejoin="round" stroke-width="1.5" d="M12 17.25a3.75 3.75 0 1 0 0-7.5 3.75 3.75 0 0 0 0 7.5"/></g><defs><clipPath id="MqiOs2k5fMa"><path fill="#fff" d="M0 0h24v24H0z"/></clipPath></defs></svg>