<svg xmlns="http://www.w3.org/2000/svg" width="25" height="24" fill="none" viewBox="0 0 25 24"><g stroke="#121331" stroke-linecap="round" stroke-width="1.5" clip-path="url(#do8OSeB6mya)"><path stroke-linejoin="round" d="M9.75 13.75h-4.5a1 1 0 0 0-1 1v4.5a1 1 0 0 0 1 1h4.5a1 1 0 0 0 1-1v-4.5a1 1 0 0 0-1-1m0-10h-4.5a1 1 0 0 0-1 1v4.5a1 1 0 0 0 1 1h4.5a1 1 0 0 0 1-1v-4.5a1 1 0 0 0-1-1m10 0h-4.5a1 1 0 0 0-1 1v4.5a1 1 0 0 0 1 1h4.5a1 1 0 0 0 1-1v-4.5a1 1 0 0 0-1-1"/><path stroke-miterlimit="10" d="M17.5 13.75v6.5M20.75 17h-6.5"/></g><defs><clipPath id="do8OSeB6mya"><path fill="#fff" d="M.5 0h24v24H.5z"/></clipPath></defs></svg>