<svg xmlns="http://www.w3.org/2000/svg" width="430" height="430" fill="none" viewBox="0 0 430 430"><path fill="url(#DrSueKijB9a)" d="M270.5 172.4a9 9 0 0 0-9 9 9 9 0 0 0 9 9h57.2a9 9 0 0 0 9-9 9 9 0 0 0-9-9z"/><path fill="url(#BSUoHqc3G2b)" d="M261.5 208.1a9 9 0 0 1 9-9h57.2a9 9 0 0 1 9 9 9 9 0 0 1-9 9h-57.2a9 9 0 0 1-9-9"/><path fill="url(#ud-qM1DR4ac)" d="M270.5 225.7a9 9 0 0 0-9 9 9 9 0 0 0 9 9h57.2a9 9 0 0 0 9-9 9 9 0 0 0-9-9z"/><path fill="url(#DneIkJ8v5Td)" d="M261.5 261.4a9 9 0 0 1 9-9h57.2a9 9 0 0 1 9 9 9 9 0 0 1-9 9h-57.2a9 9 0 0 1-9-9"/><path fill="url(#H1YOqx1n0Ce)" d="M270.5 279.1a9 9 0 0 0-9 9 9 9 0 0 0 9 9h57.2a9 9 0 0 0 9-9 9 9 0 0 0-9-9z"/><path fill="url(#XM7Kp1vVEff)" d="M261.5 314.8a9 9 0 0 1 9-9h57.2a9 9 0 0 1 9 9 9 9 0 0 1-9 9h-57.2a9 9 0 0 1-9-9"/><path fill="url(#DTjQO9vWpGg)" d="M270.5 332.4a9 9 0 0 0-9 9 9 9 0 0 0 9 9h57.2a9 9 0 0 0 9-9 9 9 0 0 0-9-9z"/><path fill="url(#sD15SJczn3h)" d="M134.5 73.3a9 9 0 0 1 9 9v24.8a9 9 0 0 1-9 9 9 9 0 0 1-9-9V82.3a9 9 0 0 1 9-9"/><path fill="url(#MV9Lm5gUD0i)" d="M170.301 82.3a9 9 0 0 0-18 0v24.8a9 9 0 0 0 18 0z"/><path fill="url(#6A0jK_I6Xkj)" d="M188 73.3a9 9 0 0 1 9 9v24.8a9 9 0 0 1-9 9 9 9 0 0 1-9-9V82.3a9 9 0 0 1 9-9"/><path fill="url(#nnLZCRNNELk)" d="M143.5 131.9a9 9 0 0 0-9-9 9 9 0 0 0-9 9v24.8a9 9 0 0 0 9 9 9 9 0 0 0 9-9z"/><path fill="url(#YpcuWRUQHSl)" d="M161.301 122.9a9 9 0 0 1 9 9v24.8a9 9 0 0 1-18 0v-24.8a9 9 0 0 1 9-9"/><path fill="url(#AUYE5lVdpzm)" d="M197 131.9a9 9 0 0 0-9-9 9 9 0 0 0-9 9v24.8a9 9 0 0 0 9 9 9 9 0 0 0 9-9z"/><path fill="url(#8jItmNDAh4n)" d="M134.5 172.5a9 9 0 0 1 9 9v24.8a9 9 0 0 1-9 9 9 9 0 0 1-9-9v-24.8a9 9 0 0 1 9-9"/><path fill="url(#BDqICbfhrzo)" d="M170.301 181.5a9 9 0 0 0-18 0v24.8a9 9 0 0 0 18 0z"/><path fill="url(#_O5JhVgCgvp)" d="M188 172.5a9 9 0 0 1 9 9v24.8a9 9 0 0 1-9 9 9 9 0 0 1-9-9v-24.8a9 9 0 0 1 9-9"/><path fill="url(#xASP0tTeNfq)" d="M143.5 231a9 9 0 0 0-9-9 9 9 0 0 0-9 9v24.8a9 9 0 0 0 9 9 9 9 0 0 0 9-9z"/><path fill="url(#VY9VGTjoRrr)" d="M161.301 222a9 9 0 0 1 9 9v24.8a9 9 0 0 1-18 0V231a9 9 0 0 1 9-9"/><path fill="url(#Xyr-HonZ6ls)" d="M197 231a9 9 0 0 0-9-9 9 9 0 0 0-9 9v24.8a9 9 0 0 0 9 9 9 9 0 0 0 9-9z"/><path fill="url(#OSy8otTJ_4t)" d="M214.801 73.3a9 9 0 0 1 9 9v24.8a9 9 0 0 1-18 0V82.3a9 9 0 0 1 9-9"/><path fill="url(#EpYe7mep7Xu)" d="M223.801 131.9a9 9 0 0 0-18 0v24.8a9 9 0 0 0 18 0z"/><path fill="url(#m8HPGWELkVv)" d="M214.801 172.5a9 9 0 0 1 9 9v24.8a9 9 0 0 1-18 0v-24.8a9 9 0 0 1 9-9"/><path fill="url(#PbmIyMkU2kw)" d="M223.801 231a9 9 0 0 0-18 0v24.8a9 9 0 0 0 18 0z"/><path fill="url(#XPLtIoENxsx)" d="M107.801 73.3a9 9 0 0 1 9 9v24.8a9 9 0 0 1-18 0V82.3a9 9 0 0 1 9-9"/><path fill="url(#T5vRRZQBlPy)" d="M116.801 131.9a9 9 0 0 0-18 0v24.8a9 9 0 0 0 18 0z"/><path fill="url(#r_43NGsY1Sz)" d="M107.801 172.5a9 9 0 0 1 9 9v24.8a9 9 0 0 1-18 0v-24.8a9 9 0 0 1 9-9"/><path fill="url(#rw9TyJwugmA)" d="M116.801 231a9 9 0 0 0-18 0v24.8a9 9 0 0 0 18 0z"/><path fill="url(#bZJgrd5lp8B)" fill-rule="evenodd" d="M255.5 55a9 9 0 0 0-9.011-9l-168.5.2a9 9 0 0 0-8.989 9v319.9a9 9 0 0 0 9.01 9l168.501-.2 106.072.2a9 9 0 0 0 9.017-9V147.4a9 9 0 0 0-9-9h-97.1zm88.1 311.083-88.1-.166V156.4h88.1zM237.5 64.011v301.9l-32.201.038V284.4a9 9 0 0 0-9-9h-69.1a9 9 0 0 0-9 9v81.652L87 366.089v-301.9zm-50.201 301.902-16.399.024V293.4h16.399zm-51.1-72.513H152.9v72.563l-16.701.024z" clip-rule="evenodd"/><defs><linearGradient id="DrSueKijB9a" x1="164.717" x2="346.368" y1="121.084" y2="298.157" gradientUnits="userSpaceOnUse"><stop stop-color="#3080e8"/><stop offset="1"/></linearGradient><linearGradient id="BSUoHqc3G2b" x1="164.717" x2="346.368" y1="121.084" y2="298.157" gradientUnits="userSpaceOnUse"><stop stop-color="#3080e8"/><stop offset="1"/></linearGradient><linearGradient id="ud-qM1DR4ac" x1="164.717" x2="346.368" y1="121.084" y2="298.157" gradientUnits="userSpaceOnUse"><stop stop-color="#3080e8"/><stop offset="1"/></linearGradient><linearGradient id="DneIkJ8v5Td" x1="164.717" x2="346.368" y1="121.084" y2="298.157" gradientUnits="userSpaceOnUse"><stop stop-color="#3080e8"/><stop offset="1"/></linearGradient><linearGradient id="H1YOqx1n0Ce" x1="164.717" x2="346.368" y1="121.084" y2="298.157" gradientUnits="userSpaceOnUse"><stop stop-color="#3080e8"/><stop offset="1"/></linearGradient><linearGradient id="XM7Kp1vVEff" x1="164.717" x2="346.368" y1="121.084" y2="298.157" gradientUnits="userSpaceOnUse"><stop stop-color="#3080e8"/><stop offset="1"/></linearGradient><linearGradient id="DTjQO9vWpGg" x1="164.717" x2="346.368" y1="121.084" y2="298.157" gradientUnits="userSpaceOnUse"><stop stop-color="#3080e8"/><stop offset="1"/></linearGradient><linearGradient id="sD15SJczn3h" x1="164.717" x2="346.368" y1="121.084" y2="298.157" gradientUnits="userSpaceOnUse"><stop stop-color="#3080e8"/><stop offset="1"/></linearGradient><linearGradient id="MV9Lm5gUD0i" x1="164.717" x2="346.368" y1="121.084" y2="298.157" gradientUnits="userSpaceOnUse"><stop stop-color="#3080e8"/><stop offset="1"/></linearGradient><linearGradient id="6A0jK_I6Xkj" x1="164.717" x2="346.368" y1="121.084" y2="298.157" gradientUnits="userSpaceOnUse"><stop stop-color="#3080e8"/><stop offset="1"/></linearGradient><linearGradient id="nnLZCRNNELk" x1="164.717" x2="346.368" y1="121.084" y2="298.157" gradientUnits="userSpaceOnUse"><stop stop-color="#3080e8"/><stop offset="1"/></linearGradient><linearGradient id="YpcuWRUQHSl" x1="164.717" x2="346.368" y1="121.084" y2="298.157" gradientUnits="userSpaceOnUse"><stop stop-color="#3080e8"/><stop offset="1"/></linearGradient><linearGradient id="AUYE5lVdpzm" x1="164.717" x2="346.368" y1="121.084" y2="298.157" gradientUnits="userSpaceOnUse"><stop stop-color="#3080e8"/><stop offset="1"/></linearGradient><linearGradient id="8jItmNDAh4n" x1="164.717" x2="346.368" y1="121.084" y2="298.157" gradientUnits="userSpaceOnUse"><stop stop-color="#3080e8"/><stop offset="1"/></linearGradient><linearGradient id="BDqICbfhrzo" x1="164.717" x2="346.368" y1="121.084" y2="298.157" gradientUnits="userSpaceOnUse"><stop stop-color="#3080e8"/><stop offset="1"/></linearGradient><linearGradient id="_O5JhVgCgvp" x1="164.717" x2="346.368" y1="121.084" y2="298.157" gradientUnits="userSpaceOnUse"><stop stop-color="#3080e8"/><stop offset="1"/></linearGradient><linearGradient id="xASP0tTeNfq" x1="164.717" x2="346.368" y1="121.084" y2="298.157" gradientUnits="userSpaceOnUse"><stop stop-color="#3080e8"/><stop offset="1"/></linearGradient><linearGradient id="VY9VGTjoRrr" x1="164.717" x2="346.368" y1="121.084" y2="298.157" gradientUnits="userSpaceOnUse"><stop stop-color="#3080e8"/><stop offset="1"/></linearGradient><linearGradient id="Xyr-HonZ6ls" x1="164.717" x2="346.368" y1="121.084" y2="298.157" gradientUnits="userSpaceOnUse"><stop stop-color="#3080e8"/><stop offset="1"/></linearGradient><linearGradient id="OSy8otTJ_4t" x1="164.717" x2="346.368" y1="121.084" y2="298.157" gradientUnits="userSpaceOnUse"><stop stop-color="#3080e8"/><stop offset="1"/></linearGradient><linearGradient id="EpYe7mep7Xu" x1="164.717" x2="346.368" y1="121.084" y2="298.157" gradientUnits="userSpaceOnUse"><stop stop-color="#3080e8"/><stop offset="1"/></linearGradient><linearGradient id="m8HPGWELkVv" x1="164.717" x2="346.368" y1="121.084" y2="298.157" gradientUnits="userSpaceOnUse"><stop stop-color="#3080e8"/><stop offset="1"/></linearGradient><linearGradient id="PbmIyMkU2kw" x1="164.717" x2="346.368" y1="121.084" y2="298.157" gradientUnits="userSpaceOnUse"><stop stop-color="#3080e8"/><stop offset="1"/></linearGradient><linearGradient id="XPLtIoENxsx" x1="164.717" x2="346.368" y1="121.084" y2="298.157" gradientUnits="userSpaceOnUse"><stop stop-color="#3080e8"/><stop offset="1"/></linearGradient><linearGradient id="T5vRRZQBlPy" x1="164.717" x2="346.368" y1="121.084" y2="298.157" gradientUnits="userSpaceOnUse"><stop stop-color="#3080e8"/><stop offset="1"/></linearGradient><linearGradient id="r_43NGsY1Sz" x1="164.717" x2="346.368" y1="121.084" y2="298.157" gradientUnits="userSpaceOnUse"><stop stop-color="#3080e8"/><stop offset="1"/></linearGradient><linearGradient id="rw9TyJwugmA" x1="164.717" x2="346.368" y1="121.084" y2="298.157" gradientUnits="userSpaceOnUse"><stop stop-color="#3080e8"/><stop offset="1"/></linearGradient><linearGradient id="bZJgrd5lp8B" x1="164.717" x2="346.368" y1="121.084" y2="298.157" gradientUnits="userSpaceOnUse"><stop stop-color="#3080e8"/><stop offset="1"/></linearGradient></defs></svg>