<svg xmlns="http://www.w3.org/2000/svg" width="430" height="430" fill="none" viewBox="0 0 430 430"><g stroke-linecap="round" stroke-linejoin="round" stroke-width="12"><path stroke="#fff" stroke-miterlimit="14" d="M359.9 230c20-20 30-46.2 30-72.4s-10-52.4-30-72.4c-17-17.2-38.6-26.9-60.9-29.4-29.9-3.4-61 6.4-83.9 29.4l-.1.1-.1-.1c-20-20-46.2-30-72.4-30s-52.4 10-72.4 30C30 125.1 30 190 70 230l145 145z"/><path stroke="#c44e35" stroke-miterlimit="10.92" d="M178.4 91c-11.1-5.6-22.4-9.5-31.4-9.5-20.5 0-40.9 7.8-56.5 23.4-11.2 11.2-18.4 24.8-21.5 39.2"/></g></svg>