<svg xmlns="http://www.w3.org/2000/svg" width="430" height="430" fill="none" viewBox="0 0 430 430"><g stroke-linecap="round" stroke-linejoin="round" stroke-miterlimit="10" stroke-width="12"><path stroke="#c44e35" d="m215.067 105 21.518 43.842L285 155.835l-34.966 34.159 8.203 48.145-43.17-22.727-43.304 22.727 8.338-48.145L145 155.835l48.415-6.993z"/><path stroke="#fff" d="m215 30-12.835 9.167A85 85 0 0 1 152.76 55H100l-35 55 11.661 11.662A53 53 0 0 1 89.35 176.24l-25.375 74.432c-19.853 58.235 20.044 119.693 81.318 125.264l9.496.863A97.65 97.65 0 0 1 215 405m0-375 12.834 9.167A85 85 0 0 0 277.24 55H330l35 55-11.662 11.662a53 53 0 0 0-12.688 54.578l25.374 74.432c19.854 58.235-20.043 119.693-81.317 125.264l-9.497.863A97.65 97.65 0 0 0 215 405m-55-120h110m-90 35h70"/></g></svg>