<svg xmlns="http://www.w3.org/2000/svg" width="430" height="430" fill="none" viewBox="0 0 430 430"><g stroke-linejoin="round" stroke-width="12"><path stroke="#000" stroke-linecap="round" d="m134.545 255 27.146 99.535c4.185 15.343-7.365 30.465-23.269 30.465a24.12 24.12 0 0 1-23.269-17.773L84.307 254.125"/><path stroke="#c44e35" stroke-linecap="round" d="M340 150h25c22.091 0 40 17.909 40 40s-17.909 40-40 40h-25"/><path stroke="#000" stroke-linecap="round" d="M165 125H95c-35.898 0-65 29.101-65 65s29.102 65 65 65h70"/><path stroke="#000" d="m165 125 175-70v270l-175-70z"/><path stroke="#c44e35" stroke-linecap="round" d="M96 169h35m-35 40h35"/></g></svg>