<svg xmlns="http://www.w3.org/2000/svg" width="24" height="24" fill="none" viewBox="0 0 24 24"><g clip-path="url(#ymP_9IADSHa)"><mask id="TtO4A6dccFb" width="16" height="12" x="7" y="10" maskUnits="userSpaceOnUse" style="mask-type:alpha"><path fill="#D9D9D9" d="M7 16.25V22h16V10h-4.75v1.36c0 2.7-2.19 4.89-4.89 4.89z"/></mask><g mask="url(#TtO4A6dccFb)"><path stroke="#fff" stroke-linecap="round" stroke-linejoin="round" stroke-width="1.5" d="M21.25 20.25h-8.72c-2.08 0-3.78-1.69-3.78-3.78v-.95c0-2.08 1.69-3.78 3.78-3.78h4.95c2.08 0 3.78 1.69 3.78 3.78v4.72z"/></g><path stroke="#fff" stroke-linecap="round" stroke-linejoin="round" stroke-width="1.5" d="M7.64 4.75h5.72c2.7 0 4.89 2.19 4.89 4.89v1.72c0 2.7-2.19 4.89-4.89 4.89H2.75V9.64c0-2.7 2.19-4.89 4.89-4.89"/><circle cx="6.75" cy="10.5" r="1" fill="#fff"/><circle cx="10.5" cy="10.5" r="1" fill="#fff"/><circle cx="14.5" cy="10.5" r="1" fill="#fff"/></g><defs><clipPath id="ymP_9IADSHa"><path fill="#fff" d="M0 0h24v24H0z"/></clipPath></defs></svg>