<svg xmlns="http://www.w3.org/2000/svg" width="430" height="430" fill="none" viewBox="0 0 430 430"><mask id="bBcaeM2C8za" width="408" height="327" x="7" y="38" maskUnits="userSpaceOnUse" style="mask-type:alpha"><path fill="#D9D9D9" d="M414.979 38.7H7.122v325.403h245.301a29.03 29.03 0 0 1 5.576-31.625 29.03 29.03 0 0 1-4.183-34.403l.048-.084 10.676-18.505.053-.091a29.04 29.04 0 0 1 31.888-13.584c1.26-4.265 3.278-8.216 6.311-11.521s12.889-9.29 22.336-9.29h20.518a29.04 29.04 0 0 1 27.857 20.838 29.04 29.04 0 0 1 31.899 13.634l.03.052 9.547 16.532zm0 290.102a29 29 0 0 1-2.995 3.717 29 29 0 0 1 2.995 3.711z"/></mask><g mask="url(#bBcaeM2C8za)"><mask id="bO8qY7sbenb" width="408" height="301" x="7" y="64" maskUnits="userSpaceOnUse" style="mask-type:alpha"><path fill="#D9D9D9" fill-rule="evenodd" d="M285 120c0 38.66-31.34 70-70 70s-70-31.34-70-70c0-22.69 10.795-42.857 27.529-55.648H7.122v299.751h407.857V64.353H257.471C274.205 77.142 285 97.31 285 120M176.73 225c-54.803 0-99.23 44.427-99.23 99.23V350h275v-25.77c0-54.803-44.427-99.23-99.23-99.23z" clip-rule="evenodd"/></mask><g stroke="#c44e35" stroke-linejoin="round" stroke-width="18" mask="url(#bO8qY7sbenb)"><path stroke-linecap="round" stroke-miterlimit="10" d="M135 195c30.376 0 55-24.624 55-55s-24.624-55-55-55-55 24.624-55 55 24.624 55 55 55"/><path d="M20 308.282C20 262.287 57.287 225 103.282 225h63.436C212.713 225 250 262.287 250 308.282V325H20z"/><path stroke-linecap="round" stroke-miterlimit="10" d="M290 195c30.376 0 55-24.624 55-55s-24.624-55-55-55-55 24.624-55 55 24.624 55 55 55"/><path d="M175 308.282C175 262.287 212.287 225 258.282 225h63.436C367.713 225 405 262.287 405 308.282V325H175z"/></g><path stroke="#000" stroke-linecap="round" stroke-linejoin="round" stroke-miterlimit="10" stroke-width="18" d="M215 190c38.66 0 70-31.34 70-70s-31.34-70-70-70-70 31.34-70 70 31.34 70 70 70"/><path stroke="#000" stroke-linejoin="round" stroke-width="18" d="M77.5 324.23c0-54.803 44.427-99.23 99.23-99.23h76.54c54.803 0 99.23 44.427 99.23 99.23V350h-275z"/></g><path stroke="#c44e35" stroke-linecap="round" stroke-linejoin="round" stroke-width="18" d="M335.016 307.454a25.07 25.07 0 0 1 24.587 29.959 25.068 25.068 0 0 1-49.655-4.89 25.08 25.08 0 0 1 25.068-25.069m60.485 37.281-8.518-4.926c.693-4.833.693-9.74 0-14.573l8.518-4.926a9.04 9.04 0 0 0 3.298-12.279l-10.687-18.505a9.04 9.04 0 0 0-12.325-3.287l-8.529 4.925a52 52 0 0 0-12.574-7.343v-9.84a9.036 9.036 0 0 0-9.037-8.981h-21.318a9.04 9.04 0 0 0-9.038 8.981v9.84a52 52 0 0 0-12.618 7.298l-8.518-4.926a9.036 9.036 0 0 0-12.292 3.288l-10.675 18.504a9.04 9.04 0 0 0 3.287 12.28l8.518 4.926a52.5 52.5 0 0 0 0 14.573l-8.518 4.926a9.036 9.036 0 0 0-3.287 12.279l10.675 18.494a9.04 9.04 0 0 0 12.292 3.299l8.518-4.926a52.5 52.5 0 0 0 12.618 7.298v9.828a9.04 9.04 0 0 0 9.038 9.038h21.363a9.04 9.04 0 0 0 9.038-9.038v-9.828a52.3 52.3 0 0 0 12.618-7.298l8.53 4.926a9.04 9.04 0 0 0 12.28-3.299l10.687-18.494a9.037 9.037 0 0 0-3.344-12.234"/></svg>