<svg xmlns="http://www.w3.org/2000/svg" width="24" height="24" fill="none" viewBox="0 0 24 24"><g clip-path="url(#Ca6v40Q9w-a)"><mask id="lRCx5HY_DUb" width="19" height="19" x="3" y="3" maskUnits="userSpaceOnUse" style="mask-type:alpha"><path fill="#D9D9D9" fill-rule="evenodd" d="M22 3H3v19h19zm-1.5 7h-5v8a2.5 2.5 0 0 0 5 0z" clip-rule="evenodd"/></mask><g mask="url(#lRCx5HY_DUb)"><path stroke="currentColor" stroke-linecap="round" stroke-linejoin="round" stroke-width="1.5" d="M18 20.5H6.5A2.5 2.5 0 0 1 4 18V4h11.5v6z"/></g><path stroke="currentColor" stroke-linecap="round" stroke-linejoin="round" stroke-width="1.5" d="M15.5 10h5v8a2.5 2.5 0 0 1-5 0zm-3-3H7v3.5h5.5zM7 13.5h5.5M7 16.56h5.5"/></g><defs><clipPath id="Ca6v40Q9w-a"><path fill="currentColor" d="M0 0h24v24H0z"/></clipPath></defs></svg>
