<svg xmlns="http://www.w3.org/2000/svg" width="24" height="24" fill="none" viewBox="0 0 24 24"><g fill="#000"><path d="M14 7a1 1 0 1 1 0 2 1 1 0 0 1 0-2"/><path fill-rule="evenodd" d="M20.25 4c.966 0 1.75.784 1.75 1.75v12.5A1.75 1.75 0 0 1 20.25 20H3.75A1.75 1.75 0 0 1 2 18.25V5.75C2 4.784 2.784 4 3.75 4zM9.427 9.987a.25.25 0 0 0-.354 0L3.5 15.56v2.69c0 .138.112.25.25.25h16.5a.25.25 0 0 0 .25-.25v-3.038l-3.07-3.193a.25.25 0 0 0-.36 0l-2.22 2.31a.75.75 0 0 1-1.072.01zM3.75 5.5a.25.25 0 0 0-.25.25v7.69l4.513-4.513a1.75 1.75 0 0 1 2.474 0l3.811 3.81 1.69-1.757a1.75 1.75 0 0 1 2.523 0l1.989 2.068V5.75a.25.25 0 0 0-.25-.25z" clip-rule="evenodd"/></g></svg>