<svg xmlns="http://www.w3.org/2000/svg" width="430" height="430" fill="none" viewBox="0 0 430 430"><g stroke-linecap="round" stroke-linejoin="round" stroke-width="18"><path stroke="#000" stroke-miterlimit="13.4906" d="M382.5 215c0 92.493-75.007 167.5-167.5 167.5S47.5 307.493 47.5 215 122.507 47.5 215 47.5 382.5 122.507 382.5 215"/><path stroke="#000" stroke-miterlimit="22.1245" d="m93.597 330.442.199-4.471c0-42.52 34.473-76.994 76.994-76.994h88.122c42.52 0 76.994 34.474 76.994 76.994l-.199 5.166"/><path stroke="#c44e35" stroke-miterlimit="22.1245" d="M257.52 126.68c8.147 9.736 13.015 22.155 13.015 35.864 0 30.798-24.936 55.734-55.734 55.734s-55.734-24.936-55.734-55.734c0-30.797 24.936-55.733 55.734-55.733 17.187-.1 32.487 7.649 42.719 19.869"/></g></svg>