<svg xmlns="http://www.w3.org/2000/svg" width="430" height="430" fill="none" viewBox="0 0 430 430"><g stroke-linejoin="round" stroke-width="12"><path stroke="#c44e35" stroke-linecap="round" d="m90 300 14.548 24.977 28.25 6.117-19.259 21.554 2.911 28.758L90 369.75l-26.45 11.656 2.911-28.758-19.258-21.554 28.25-6.117zm125 0 14.548 24.977 28.25 6.117-19.259 21.554 2.911 28.758L215 369.75l-26.45 11.656 2.911-28.758-19.259-21.554 28.25-6.117zm125 0 14.548 24.977 28.25 6.117-19.259 21.554 2.911 28.758L340 369.75l-26.45 11.656 2.911-28.758-19.259-21.554 28.25-6.117z"/><path stroke="#000" d="M91 111h60v134H91zm60 122.636L199.06 255h99.785c13.235 0 24.473-9.697 26.412-22.791l13.449-90.795c2.39-16.131-10.107-30.619-26.412-30.619h-54.493V54.742c0-19.188-15.552-34.742-34.736-34.742-7.586 0-13.958 5.705-14.796 13.245l-4.861 43.753c-2.813 25.322-24.216 44.479-49.694 44.479H151"/></g></svg>