<svg xmlns="http://www.w3.org/2000/svg" width="430" height="430" fill="none" viewBox="0 0 430 430"><path stroke="#c44e35" stroke-linecap="round" stroke-linejoin="round" stroke-miterlimit="10" stroke-width="18" d="M200.5 180c37.279 0 67.5-30.221 67.5-67.5 0-37.28-30.221-67.5-67.5-67.5S133 75.22 133 112.5s30.221 67.5 67.5 67.5"/><mask id="a0UOYmjBCoa" width="341" height="190" x="29" y="195" maskUnits="userSpaceOnUse" style="mask-type:alpha"><path fill="#D9D9D9" d="M370 195.803H29.593V385H370v-21.01C357.295 376.955 339.587 385 320 385c-38.66 0-70-31.34-70-70s31.34-70 70-70c19.587 0 37.295 8.045 50 21.01z"/></mask><g mask="url(#a0UOYmjBCoa)"><path stroke="#000" stroke-linejoin="round" stroke-width="18" d="M55 319.545C55 261.807 101.807 215 159.545 215h80.909C298.193 215 345 261.807 345 319.545V350H55z"/></g><circle cx="320" cy="315" r="70" stroke="#c44e35" stroke-width="18"/><path stroke="#c44e35" stroke-linecap="round" stroke-linejoin="round" stroke-width="18" d="M320 285v60m30-30h-60"/></svg>