<svg xmlns="http://www.w3.org/2000/svg" width="430" height="431" fill="none" viewBox="0 0 430 431"><path fill="url(#MXY3OO6F0oa)" fill-rule="evenodd" d="M124.919 24a6 6 0 0 1 5.425 3.423L135.375 38a109 109 0 0 0 52.788 52.164l9.35 4.312a6 6 0 0 1 .014 10.89l-9.552 4.436a109 109 0 0 0-52.526 52.043l-5.105 10.732a6 6 0 0 1-10.843-.013l-4.981-10.541a109 109 0 0 0-52.643-52.29l-9.404-4.367a5.998 5.998 0 0 1 .014-10.89l9.202-4.243a109 109 0 0 0 52.905-52.412l4.907-10.384A6 6 0 0 1 124.919 24m.024 19.995A121 121 0 0 1 69.218 99.94a121 121 0 0 1 55.725 56.062 121 121 0 0 1 55.832-56.061 121 121 0 0 1-55.832-55.946" clip-rule="evenodd"/><path fill="url(#Sm_xHkaOkbb)" fill-rule="evenodd" d="M219.358 139a6 6 0 0 1 5.426 3.423l19.965 41.977a134 134 0 0 0 64.895 64.129l39.869 18.385a6 6 0 0 1 .014 10.89l-40.114 18.627a134 134 0 0 0-64.574 63.981l-20.055 42.165a6.001 6.001 0 0 1-10.843-.013l-19.816-41.933a134 134 0 0 0-64.718-64.283l-39.934-18.544a5.998 5.998 0 0 1 .014-10.89l39.689-18.302a134 134 0 0 0 65.038-64.432l19.727-41.744a6 6 0 0 1 5.417-3.436m.025 20.006-14.319 30.301a146 146 0 0 1-70.863 70.202l-27.914 12.872 28.174 13.083a146 146 0 0 1 70.514 70.04l14.408 30.49 14.619-30.737a146 146 0 0 1 70.357-69.709l28.354-13.167-28.094-12.955a146 146 0 0 1-70.706-69.872z" clip-rule="evenodd"/><path fill="url(#nCxpo8mVAnc)" fill-rule="evenodd" d="M345.371 112.423a6.001 6.001 0 0 0-10.843.013l-6.095 12.897a49 49 0 0 1-23.782 23.561l-12.164 5.609a6 6 0 0 0-.014 10.89l12.26 5.693a49 49 0 0 1 23.665 23.507l6.13 12.971a6 6 0 0 0 10.843.013l6.213-13.062a49 49 0 0 1 23.613-23.396l12.33-5.726a5.998 5.998 0 0 0-.014-10.89l-12.234-5.642a49 49 0 0 1-23.731-23.45zm-6.088 18.037.687-1.454.742 1.559a61 61 0 0 0 29.541 29.193l.46.212-.57.265a61 61 0 0 0-29.396 29.125l-.777 1.634-.722-1.528a61 61 0 0 0-29.461-29.264l-.5-.232.389-.179a61 61 0 0 0 29.607-29.331" clip-rule="evenodd"/><path fill="url(#u_AzNKDMctd)" d="M265 61c-7.732 0-14 6.268-14 14s6.268 14 14 14 14-6.268 14-14-6.268-14-14-14"/><path fill="url(#HEw-Cd-CE6e)" d="M65 201c-7.732 0-14 6.268-14 14s6.268 14 14 14 14-6.268 14-14-6.268-14-14-14"/><path fill="url(#6hGIfq0VhLf)" d="M315 346c-7.732 0-14 6.268-14 14s6.268 14 14 14 14-6.268 14-14-6.268-14-14-14"/><defs><linearGradient id="MXY3OO6F0oa" x1="105.416" x2="235.767" y1="140.349" y2="319.605" gradientUnits="userSpaceOnUse"><stop stop-color="#c44e35"/><stop offset="1" stop-color="#c69cf4"/></linearGradient><linearGradient id="Sm_xHkaOkbb" x1="105.416" x2="235.767" y1="140.349" y2="319.605" gradientUnits="userSpaceOnUse"><stop stop-color="#c44e35"/><stop offset="1" stop-color="#c69cf4"/></linearGradient><linearGradient id="nCxpo8mVAnc" x1="105.416" x2="235.767" y1="140.349" y2="319.605" gradientUnits="userSpaceOnUse"><stop stop-color="#c44e35"/><stop offset="1" stop-color="#c69cf4"/></linearGradient><linearGradient id="u_AzNKDMctd" x1="105.416" x2="235.767" y1="140.349" y2="319.605" gradientUnits="userSpaceOnUse"><stop stop-color="#c44e35"/><stop offset="1" stop-color="#c69cf4"/></linearGradient><linearGradient id="HEw-Cd-CE6e" x1="105.416" x2="235.767" y1="140.349" y2="319.605" gradientUnits="userSpaceOnUse"><stop stop-color="#c44e35"/><stop offset="1" stop-color="#c69cf4"/></linearGradient><linearGradient id="6hGIfq0VhLf" x1="105.416" x2="235.767" y1="140.349" y2="319.605" gradientUnits="userSpaceOnUse"><stop stop-color="#c44e35"/><stop offset="1" stop-color="#c69cf4"/></linearGradient></defs></svg>