<svg xmlns="http://www.w3.org/2000/svg" width="430" height="431" fill="none" viewBox="0 0 430 431"><path fill="url(#1OOArJ0BBva)" d="M303.524 166.354a9 9 0 0 0-12.748-12.708l-70.137 70.364-26.39 26.478-4.12 4.133-38.765-38.765a9 9 0 0 0-12.728 0 9 9 0 0 0 0 12.728l45.131 45.131.005.005.003.003.001.001a9 9 0 0 0 12.739-.011l-6.375-6.353 6.375 6.353 10.483-10.518 26.39-26.478c21.209-21.278 47.961-48.118 70.136-70.363"/><path fill="url(#IqQsb92Qsdb)" fill-rule="evenodd" d="M218.056 26.535a9 9 0 0 0-6.113 0l-.004.001-.316.114-.96.344c-.846.303-2.098.75-3.713 1.321a2100 2100 0 0 1-58.951 19.844C112.411 59.535 70.794 71.627 44.531 75.403a9 9 0 0 0-7.72 8.909c0 6.387-.12 13.187-.246 20.337-.675 38.184-1.526 86.356 14.811 135.028 19.649 58.536 63.769 117.255 159.72 163.433a9 9 0 0 0 7.806 0c95.952-46.178 140.072-104.897 159.721-163.432 16.337-48.671 15.486-96.841 14.81-135.021-.126-7.15-.246-13.948-.246-20.335a9 9 0 0 0-7.718-8.908C359.206 71.632 317.588 59.538 282 48.161a2101 2101 0 0 1-58.951-19.846 1259 1259 0 0 1-4.674-1.665zm-5.099 18.748 2.042-.725q.9.321 2.043.725a2122 2122 0 0 0 59.477 20.023c32.346 10.34 70.958 21.707 98.71 26.677.046 4.458.122 9.022.2 13.68.64 38.215 1.387 82.833-13.871 128.287-17.691 52.704-57.271 107.072-146.559 151.04-89.287-43.968-128.867-98.336-146.559-151.041-15.257-45.456-14.51-90.075-13.87-128.293.077-4.659.154-9.224.2-13.682 27.753-4.965 66.364-16.33 98.709-26.67a2115 2115 0 0 0 59.478-20.02" clip-rule="evenodd"/><defs><linearGradient id="1OOArJ0BBva" x1="153.206" x2="355.957" y1="109.945" y2="325.9" gradientUnits="userSpaceOnUse"><stop stop-color="#e86830"/><stop offset="1"/></linearGradient><linearGradient id="IqQsb92Qsdb" x1="153.206" x2="355.957" y1="109.945" y2="325.9" gradientUnits="userSpaceOnUse"><stop stop-color="#e86830"/><stop offset="1"/></linearGradient></defs></svg>